<svg version="1.1" id="1308765237" xmlns="http://www.w3.org/2000/svg" xmlns:xlink="http://www.w3.org/1999/xlink" x="0px" y="0px" viewBox="0 0 302.3 55.4" style="enable-background:new 0 0 302.3 55.4;" xml:space="preserve" class="svg u_1308765237" data-icon-custom="true" data-icon-name="Logo_Negativa_sf.svg"> <style type="text/css">.st0-1308765237{fill:#FFFFFF;}
	.st1-1308765237{fill:#AAFF1E;}</style> 
 <path class="st0-1308765237" d="M12,30.3c0,2.1,0.1,4.1,0.4,6.2c0.2,1.4,0.8,2.7,1.7,3.8c0.9,1,2.1,1.6,3.4,1.9c1.8,0.4,3.7,0.5,5.6,0.5h5.1
	c1,0,2.2,0,3.5,0l4.6-0.1l-1.9,9.8c-2.9,0.1-5.2,0.1-7,0.1h-4.9c-3.6,0.1-7.1-0.3-10.6-1.2c-2.6-0.6-5-1.9-7-3.8
	c-1.9-1.9-3.2-4.3-3.8-6.9c-0.8-3.4-1.2-7-1.2-10.5v-5.9c-0.1-3.5,0.3-7,1.2-10.4C2.5,8.5,6.7,4.4,12.1,3.2C15.5,2.3,19,2,22.5,2
	h5.2c1,0,2.2,0,3.6,0s2.9,0.1,4.6,0.1L34,11.9c-1.7-0.1-3.6-0.1-5.4-0.1H23c-1.9,0-3.7,0.1-5.6,0.5c-1.3,0.3-2.5,0.9-3.4,1.8
	c-0.9,1.1-1.5,2.3-1.7,3.7c-0.3,2.1-0.5,4.2-0.4,6.3L12,30.3z"></path> 
 <path class="st0-1308765237" d="M65.3,22.7c2.1,0.3,4.2,0.9,6.1,1.8c1.5,0.6,2.9,1.6,3.9,2.9c1,1.2,1.7,2.6,2.1,4.1c0.4,1.8,0.7,3.6,0.6,5.4
	v1.1c0,2.2-0.3,4.4-1,6.5c-0.7,1.8-1.8,3.3-3.3,4.5c-1.8,1.3-3.9,2.2-6.1,2.6c-3.1,0.6-6.2,0.9-9.4,0.8H51c-1.4,0-3.1,0-4.9,0
	L40,52.2l1.8-9.4c3.7,0.1,6.9,0.1,9.5,0.1h7.3c1.3,0,2.6-0.1,3.8-0.2c0.8-0.1,1.7-0.4,2.4-0.8c0.6-0.3,1-0.9,1.2-1.5
	c0.2-0.8,0.3-1.6,0.3-2.4c0-0.8,0-1.5-0.2-2.2c-0.1-0.6-0.4-1.1-0.8-1.5c-0.5-0.4-1-0.8-1.6-1c-0.9-0.3-1.8-0.5-2.7-0.7l-7.5-1.3
	c-2.3-0.4-4.5-1-6.7-1.8c-1.6-0.6-3-1.6-4.1-2.8c-1-1.1-1.7-2.5-2.1-4c-0.4-1.8-0.6-3.6-0.6-5.4v-1.1c0-2,0.3-4.1,1-6
	c0.7-1.7,1.8-3.3,3.2-4.4c1.7-1.3,3.7-2.3,5.9-2.8C53.1,2.3,56.1,2,59,2h7.6c1.4,0,2.9,0,4.5,0s3.4,0.1,5.5,0.1l-1.8,9.4
	c-3.6-0.1-6.8-0.1-9.3-0.1h-6.8c-1.2,0-2.3,0.1-3.5,0.2c-0.8,0.1-1.5,0.4-2.2,0.8c-0.5,0.3-0.9,0.9-1.1,1.4
	c-0.2,0.7-0.3,1.5-0.3,2.2c0,0.7,0.1,1.3,0.2,2c0.1,0.5,0.3,1,0.7,1.4c0.4,0.4,0.9,0.7,1.5,0.9c0.8,0.3,1.7,0.5,2.6,0.7L65.3,22.7z"></path> 
 <path class="st0-1308765237" d="M95.2,35.3v16.9H83.9v-50h20c6.8,0,11.7,1.2,14.7,3.6s4.4,6.3,4.4,11.5v2.8c0,5.1-1.5,8.9-4.5,11.4
	s-7.9,3.8-14.7,3.8L95.2,35.3z M111.5,18.3c0-1.1-0.1-2.3-0.4-3.3c-0.2-0.8-0.7-1.5-1.4-2.1c-0.7-0.6-1.6-0.9-2.5-1.1
	c-1.3-0.2-2.6-0.3-3.9-0.3h-8.1v14.3h8.1c1.3,0,2.6-0.1,3.9-0.3c0.9-0.1,1.8-0.5,2.5-1.1c0.7-0.5,1.1-1.3,1.4-2.1
	c0.3-1.1,0.5-2.2,0.4-3.3V18.3z"></path> 
 <path class="st0-1308765237" d="M209.7,4.5l-0.8,3.5h-16v43.1h-3.9V8.1h-16.7l0.8-3.5L209.7,4.5z"></path> 
 <path class="st0-1308765237" d="M211.6,35.3c0,2.1,0.1,4.1,0.5,6.2c0.2,1.4,0.8,2.7,1.6,3.9c0.9,1,2,1.7,3.2,2c1.7,0.4,3.5,0.6,5.4,0.6
	c1.9,0,3.7,0,5.4,0l5.6-0.1l-0.7,3.3c-1.5,0-3.2,0.1-5,0.1h-5.3c-2.4,0.1-4.8-0.3-7.1-1c-1.7-0.5-3.2-1.6-4.4-2.9
	c-1.1-1.4-1.9-3.1-2.3-4.8c-0.5-2.2-0.7-4.4-0.7-6.7v-4.1c0-2.4,0.2-4.7,0.8-7c0.5-1.8,1.3-3.4,2.6-4.8c1.2-1.3,2.7-2.2,4.4-2.7
	c2.1-0.6,4.2-0.9,6.4-0.9c4.9,0,8.4,1.1,10.6,3.2c2.2,2.1,3.2,5.5,3.2,10.1v1.6c0,0.7,0,1.4-0.2,2.2c-0.1,0.4-0.3,0.9-0.6,1.2
	c-0.3,0.3-0.7,0.5-1.1,0.6c-0.6,0.1-1.1,0.1-1.7,0.1H211.6z M221.9,19.6c-1.6,0-3.2,0.1-4.7,0.5c-1.2,0.3-2.4,1-3.2,1.9
	c-0.9,1.1-1.5,2.4-1.8,3.8c-0.4,2.1-0.6,4.1-0.6,6.2h20.6v-2.2c0-1.7-0.2-3.3-0.6-4.9c-0.6-2.4-2.6-4.3-5-4.8
	C225.1,19.8,223.5,19.6,221.9,19.6z"></path> 
 <path class="st0-1308765237" d="M257.5,48c1.8,0,3.4,0,4.9,0s2.8,0,4.1-0.1l-0.7,3.3c-1,0-2.3,0.1-3.8,0.1h-4.4c-2.4,0.1-4.8-0.2-7.1-0.9
	c-1.7-0.5-3.3-1.4-4.6-2.7c-1.2-1.3-2.1-2.9-2.5-4.7c-0.5-2.2-0.8-4.5-0.7-6.9v-3.6c-0.1-2.4,0.2-4.8,0.8-7.1
	c0.5-1.8,1.4-3.4,2.6-4.7c1.3-1.3,2.9-2.1,4.6-2.6c2.2-0.6,4.5-0.8,6.8-0.8h3.9c1.5,0,3.1,0.1,5,0.1l-0.7,3.3
	c-1.7-0.1-3.2-0.1-4.5-0.1h-3.7c-1.8,0-3.5,0.1-5.3,0.5c-1.3,0.3-2.5,0.9-3.4,1.8c-0.9,1-1.5,2.3-1.8,3.6c-0.4,1.9-0.6,3.9-0.5,5.9
	v3.7c0,1.9,0.1,3.8,0.5,5.6c0.3,1.3,0.9,2.6,1.8,3.6c0.9,1,2.1,1.7,3.4,2C253.9,47.8,255.7,48,257.5,48z"></path> 
 <path class="st0-1308765237" d="M274.3,51.2V2.5h3.8v18c1-1.3,2.3-2.3,3.9-2.9c2.3-0.9,4.7-1.3,7.1-1.2c1.8,0,3.7,0.2,5.5,0.6
	c1.5,0.3,2.9,1,4.2,1.9c1.2,0.9,2.1,2.1,2.6,3.5c0.7,1.8,1,3.6,0.9,5.5v23.3h-3.8V28.4c0-1.4-0.1-2.8-0.5-4.1
	c-0.3-1-0.9-1.9-1.7-2.6c-0.9-0.7-1.9-1.2-3-1.4c-1.5-0.3-3-0.4-4.5-0.4c-1.4,0-2.8,0.1-4.2,0.4c-1.2,0.2-2.3,0.6-3.4,1.3
	c-1,0.6-1.7,1.5-2.3,2.5c-0.6,1.2-0.9,2.6-0.8,4v23.3L274.3,51.2z"></path> 
 <polygon class="st1-1308765237" points="166,27.5 143.8,55.4 130.8,55.4 153,27.5 130.8,0 143.8,0 "></polygon> 
</svg>